<?xml version="1.0" encoding="UTF-8"?>
<!-- Generated by Pixelmator Pro 4.3 -->
<svg viewBox="0 0 1024 1024" xmlns="http://www.w3.org/2000/svg">
    <path id="Color-Fill" fill="#000000" stroke="none" d="M 0 0 L 1024 0 L 1024 1024 L 0 1024 Z"/>
    <path id="Rectangle" fill="#ff02e8" fill-rule="evenodd" stroke="none" d="M 387 944 L 462 944 L 462 322 L 387 322 Z"/>
    <path id="Rectangle-copy" fill="#cc0000" fill-rule="evenodd" stroke="none" d="M 211 751 L 286 751 L 286 80 L 211 80 Z"/>
    <path id="Rectangle-copy-2" fill="#6f1bd3" fill-rule="evenodd" stroke="none" d="M 299 564 L 374 564 L 374 322 L 299 322 Z"/>
    <path id="Rectangle-copy-3" fill="#2254f5" fill-rule="evenodd" stroke="none" d="M 474 455 L 549 455 L 549 213 L 474 213 Z"/>
    <path id="Rectangle-copy-4" fill="#43b752" fill-rule="evenodd" stroke="none" d="M 561 501 L 636 501 L 636 259 L 561 259 Z"/>
    <path id="Rectangle-copy-5" fill="#efb219" fill-rule="evenodd" stroke="none" d="M 738 455 L 813 455 L 813 168 L 738 168 Z"/>
    <path id="Rectangle-copy-6" fill="#ff6900" fill-rule="evenodd" stroke="none" d="M 649 671 L 724 671 L 724 322 L 649 322 Z"/>
</svg>
